<svg version="1.1" id="Layer_1" xmlns="http://www.w3.org/2000/svg" x="0" y="0" viewBox="0 0 521.33 99.88" style="enable-background:new 0 0 521.33 99.88" xml:space="preserve"><style>.st0{fill:#f90}.st2{fill:#434343}</style><path class="st0" d="M7.62 26.81c1.92-.29 3.85-.56 5.78-.8 1.53-.19 3.07-.33 4.61-.46 1.68-.14 3.37-.27 5.06-.36 1.78-.09 3.56-.16 5.34-.19 1.93-.03 3.86-.04 5.78-.01 1.84.03 3.67.1 5.5.2 1.7.1 3.41.25 5.11.41 2.53.24 5.04.61 7.53 1.1 1.97.39 3.91.92 5.83 1.51 4.1 1.26 8.24 2.39 12.42 3.35 1.31.3 2.62.57 3.96.72.64.07 1.28.11 1.93.11V10.28L0 0v28.26c2.52-.57 5.06-1.07 7.62-1.45zM76.36 40.95c-1.08.02-2.09.32-3.05.8-.39.19-.67.5-.92.85-.37.52-.62 1.09-.85 1.68-.43 1.13-.81 2.27-1.26 3.39-.65 1.58-1.15 3.22-1.74 4.81-1.13 3.04-2.49 5.96-4.22 8.71-1.82 2.89-3.97 5.49-6.56 7.72-3.56 3.06-7.63 5.14-12.17 6.3-1.78.45-3.59.75-5.42.92-1.77.17-3.54.17-5.31.13-1.47-.03-2.94-.13-4.4-.29-3.28-.36-6.49-1.02-9.57-2.25-2.66-1.06-5.07-2.51-7.16-4.47-2.08-1.96-3.65-4.29-4.83-6.89-.95-2.09-1.62-4.27-2.14-6.49-.43-1.85-.75-3.72-1.05-5.6-.27-1.69-.5-3.38-.87-5.05-.34-1.53-.75-3.03-1.37-4.47-.3-.69-.65-1.35-1.1-1.95-.28-.37-.59-.72-.98-.99-.41-.3-.86-.49-1.39-.48v62.54l76.45-9.86V40.96c-.03 0-.06-.01-.09-.01z"/><path class="st0" d="M55.34 31.62c-1.83-.86-3.75-1.42-5.71-1.87-3.06-.69-6.17-1.05-9.3-1.25-1.87-.12-3.74-.15-5.62-.13-3.07.03-6.13.23-9.17.72-1.82.29-3.62.71-5.36 1.33-1.84.65-3.59 1.5-5.16 2.68-1.94 1.47-3.4 3.3-4.25 5.6-.74 2.01-1.15 4.09-1.28 6.23-.12 1.88-.01 3.74.28 5.6.34 2.14.91 4.21 1.69 6.22 1.05 2.69 2.4 5.23 4.17 7.52 2.15 2.78 4.82 4.9 8.07 6.26 2.21.93 4.53 1.47 6.9 1.78 1.71.22 3.44.33 5.69.34 1.54.01 3.58-.17 5.6-.55 2.54-.48 4.96-1.29 7.25-2.49 3.58-1.88 6.48-4.53 8.8-7.83 1.76-2.5 3.09-5.23 4.12-8.11.84-2.33 1.48-4.7 1.72-7.17.15-1.55.14-3.1-.13-4.64-.46-2.67-1.61-4.99-3.52-6.92-1.38-1.42-3.01-2.48-4.79-3.32z"/><path class="st2" d="M111.71 40.88c6.48 2.46 12.84 5.64 12.84 14.76s-7.74 13.08-15.24 13.08c-5.88 0-10.5-1.56-14.82-5.34l2.82-3.66c3.48 3.18 7.2 4.56 12 4.56 1.74 0 10.44-.48 10.44-8.64 0-6.84-5.4-8.7-10.86-10.8-5.94-2.28-12.78-4.62-12.78-14.1 0-7.26 5.7-12.18 13.92-12.18 5.04 0 9.54 1.98 13.08 4.62l-2.76 3.66c-2.82-2.04-6.42-3.84-10.32-3.84-4.38 0-9.12 2.16-9.12 7.74 0 6.84 5.34 8.04 10.8 10.14zM168.17 68.06h-4.56V49.1c0-5.4-3.42-6.54-6.36-6.54-3.66 0-6.42 2.88-6.42 6.54v18.96h-4.5V49.1c0-5.4-3.42-6.54-6.36-6.54-3.66 0-6.36 2.88-6.36 6.54v18.96h-4.56V38.78h4.56v2.94c2.1-2.1 4.26-3.6 7.74-3.6 3.6 0 6.18 1.86 7.74 4.26 3.06-3.24 5.58-4.26 9.42-4.26 5.34 0 9.66 4.38 9.66 11.1v18.84zM197.33 68.06h-4.56v-3.3c-3.54 3.78-7.38 3.96-9.84 3.96-5.16 0-10.56-3.54-10.56-9.66 0-2.28.84-5.46 3.78-7.8 3.42-2.76 8.82-3.24 16.5-1.8-.42-5.22-2.34-7.02-7.32-7.02-2.28 0-5.64.48-9 2.34l-1.86-3.96c4.32-2.28 8.64-2.7 10.92-2.7 10.38 0 11.94 7.08 11.94 13.98v15.96zm-4.56-14.34c-8.52-1.74-12-.48-13.8.9-1.26.96-1.92 2.52-1.92 4.44 0 .78.54 5.58 6.42 5.34 6.12-.24 9.3-3.06 9.3-8.34v-2.34zM222.23 39.56l-2.28 4.32c-1.32-1.14-3.18-1.44-4.8-1.44-3.9 0-6.96 3.06-6.96 6.96v18.66h-4.56V38.78h4.56v3.54c1.86-2.52 4.68-4.2 8.16-4.2 2.16 0 4.2.48 5.88 1.44zM239.09 66.98c-1.32 1.08-3.06 1.74-4.98 1.74-4.26 0-7.62-3.42-7.62-7.92V42.98h-2.76v-4.2h2.76V27.8h4.56v10.98h6v4.2h-6V60.8c0 1.74.96 3.6 3.12 3.6.96 0 1.86-.36 2.52-.96l2.4 3.54zM272.21 53.36c0 8.28-6.6 14.7-14.82 14.7h-13.74l-.06-48.84h13.38c6.66 0 12 5.28 12 12.06 0 3.72-1.92 7.56-4.8 9.24 4.62 2.22 8.04 7.2 8.04 12.84zm-23.94-29.82v15.3h8.7c4.08 0 7.2-3.42 7.2-7.56 0-4.2-3.12-7.74-7.2-7.74h-8.7zm19.14 29.82c0-5.7-4.38-10.2-10.02-10.2v-.06c-.18.06-.24.06-9.12.06l.06 20.58h9.06c5.64 0 10.02-4.68 10.02-10.38zM299.93 39.38v17.64c0 6.54-5.1 11.7-11.58 11.7s-11.64-5.16-11.64-11.7V39.38h4.56v17.64c0 4.2 2.94 7.38 7.08 7.38s7.02-3.18 7.02-7.38V39.38h4.56zM312.23 81.32h-4.74l7.26-15.96-11.52-26.58h4.86l9.12 21.42 9.96-21.42h4.86l-19.8 42.54zM379.67 57.26c-4.5 7.2-11.88 11.46-20.88 11.46-14.04 0-24.36-10.5-24.36-25.02 0-14.58 10.32-25.14 24.36-25.14 6.96 0 13.08 2.46 17.46 6.84l-3.06 3.42c-3.54-3.66-8.52-5.82-14.4-5.82-11.34 0-19.56 8.82-19.56 20.7 0 11.88 8.22 20.58 19.56 20.58 7.08 0 12.78-3.48 16.14-8.4V45.62h-15.18v-4.26h19.86l.06 15.9zM390.71 19.22v48.84h-4.56V19.22h4.56zM420.35 68.06h-4.56v-3.3c-3.54 3.78-7.38 3.96-9.84 3.96-5.16 0-10.56-3.54-10.56-9.66 0-2.28.84-5.46 3.78-7.8 3.42-2.76 8.82-3.24 16.5-1.8-.42-5.22-2.34-7.02-7.32-7.02-2.28 0-5.64.48-9 2.34l-1.86-3.96c4.32-2.28 8.64-2.7 10.92-2.7 10.38 0 11.94 7.08 11.94 13.98v15.96zm-4.56-14.34c-8.52-1.74-12-.48-13.8.9-1.26.96-1.92 2.52-1.92 4.44 0 .78.54 5.58 6.42 5.34 6.12-.24 9.3-3.06 9.3-8.34v-2.34zM445.19 60.32c0 5.82-5.28 8.4-10.5 8.4-3.78 0-7.32-1.56-10.14-4.32l2.58-3.6c2.1 2.22 4.74 3.6 7.56 3.6 1.02 0 5.94-.24 5.94-4.08 0-3.18-1.38-3.48-6.24-4.86-3.42-.96-9-2.28-9-8.94 0-5.52 5.1-8.4 10.02-8.4 3.54 0 6.78 1.32 9.3 3.72l-2.7 3.42c-1.8-1.8-4.08-2.82-6.6-2.82-1.92 0-5.46.9-5.46 4.08 0 3.24 2.28 3.66 5.64 4.62 4.68 1.32 9.6 2.52 9.6 9.18zM468.23 60.32c0 5.82-5.28 8.4-10.5 8.4-3.78 0-7.32-1.56-10.14-4.32l2.58-3.6c2.1 2.22 4.74 3.6 7.56 3.6 1.02 0 5.94-.24 5.94-4.08 0-3.18-1.38-3.48-6.24-4.86-3.42-.96-9-2.28-9-8.94 0-5.52 5.1-8.4 10.02-8.4 3.54 0 6.78 1.32 9.3 3.72l-2.7 3.42c-1.8-1.8-4.08-2.82-6.6-2.82-1.92 0-5.46.9-5.46 4.08 0 3.24 2.28 3.66 5.64 4.62 4.68 1.32 9.6 2.52 9.6 9.18zM497.51 64.22c-3.12 2.94-6.96 4.5-11.88 4.5-8.58 0-14.7-6.24-14.7-15.24 0-8.88 6-15.36 14.16-15.36 8.4 0 13.38 6.54 13.2 16.26h-22.68c0 5.46 4.2 10.02 10.02 10.02 3.84 0 6.72-1.32 9-3.48l2.88 3.3zM475.97 50h17.52c-.9-3.84-3.18-7.56-8.4-7.56-4.38 0-7.86 2.7-9.12 7.56zM521.33 60.32c0 5.82-5.28 8.4-10.5 8.4-3.78 0-7.32-1.56-10.14-4.32l2.58-3.6c2.1 2.22 4.74 3.6 7.56 3.6 1.02 0 5.94-.24 5.94-4.08 0-3.18-1.38-3.48-6.24-4.86-3.42-.96-9-2.28-9-8.94 0-5.52 5.1-8.4 10.02-8.4 3.54 0 6.78 1.32 9.3 3.72l-2.7 3.42c-1.8-1.8-4.08-2.82-6.6-2.82-1.92 0-5.46.9-5.46 4.08 0 3.24 2.28 3.66 5.64 4.62 4.68 1.32 9.6 2.52 9.6 9.18z"/></svg>